{
    "asset" : {
        "generator" : "Khronos glTF Blender I/O v1.0.5",
        "version" : "2.0"
    },
    "scene" : 0,
    "scenes" : [
        {
            "name" : "Scene",
            "nodes" : [
                8,
                9
            ]
        }
    ],
    "nodes" : [
        {
            "mesh" : 0,
            "name" : "Brake_Disc_2",
            "translation" : [
                -0.715054988861084,
                0.058875471353530884,
                -2.693326473236084
            ]
        },
        {
            "mesh" : 1,
            "name" : "Brake_Pad_2",
            "rotation" : [
                0,
                0,
                -1,
                7.549789415861596e-08
            ],
            "translation" : [
                236.06224060058594,
                -203.29608154296875,
                -10.781364440917969
            ]
        },
        {
            "mesh" : 2,
            "name" : "Rim_2",
            "translation" : [
                1.379014015197754,
                -0.17682670056819916,
                -4.439883708953857
            ]
        },
        {
            "mesh" : 3,
            "name" : "Rim_Inner_2",
            "translation" : [
                0.12063255906105042,
                -0.16802342236042023,
                -4.211952209472656
            ]
        },
        {
            "mesh" : 4,
            "name" : "Tire",
            "rotation" : [
                0.7071068286895752,
                0,
                0,
                0.7071067094802856
            ],
            "scale" : [
                -123.48918914794922,
                -99.99993133544922,
                -99.99993133544922
            ],
            "translation" : [
                18.565475463867188,
                0.19532720744609833,
                0.25900763273239136
            ]
        },
        {
            "children" : [
                0,
                1,
                2,
                3,
                4
            ],
            "name" : "Front_Left_Wheel",
            "rotation" : [
                0,
                0,
                1,
                7.549790126404332e-08
            ]
        },
        {
            "children" : [
                5
            ],
            "name" : "Wheels"
        },
        {
            "children" : [
                6
            ],
            "name" : "GT2_RS_2"
        },
        {
            "children" : [
                7
            ],
            "name" : "GT2_RS",
            "rotation" : [
                0.7071068286895752,
                0,
                0,
                0.7071067094802856
            ],
            "scale" : [
                0.009999999776482582,
                0.009999999776482582,
                0.009999999776482582
            ]
        },
        {
            "name" : "RootNode (gltf orientation matrix)",
            "scale" : [
                0.009999990463256836,
                0.00999999325722456,
                0.00999999325722456
            ]
        }
    ],
    "materials" : [
        {
            "doubleSided" : true,
            "name" : "Material",
            "pbrMetallicRoughness" : {
                "baseColorFactor" : [
                    0.11493778973817825,
                    0.11493778973817825,
                    0.11493778973817825,
                    1
                ],
                "metallicFactor" : 0,
                "roughnessFactor" : 0.5688171982765198
            }
        },
        {
            "doubleSided" : true,
            "name" : "RimMat",
            "pbrMetallicRoughness" : {
                "baseColorFactor" : [
                    0.06372231245040894,
                    0.06372231245040894,
                    0.06372231245040894,
                    1
                ],
                "metallicFactor" : 0,
                "roughnessFactor" : 0.5
            }
        },
        {
            "doubleSided" : true,
            "name" : "tire",
            "pbrMetallicRoughness" : {
                "baseColorFactor" : [
                    0,
                    0,
                    0,
                    1
                ],
                "metallicFactor" : 0,
                "roughnessFactor" : 0.7408602237701416
            }
        }
    ],
    "meshes" : [
        {
            "name" : "Mesh.015",
            "primitives" : [
                {
                    "attributes" : {
                        "POSITION" : 0,
                        "NORMAL" : 1,
                        "TEXCOORD_0" : 2
                    },
                    "indices" : 3,
                    "material" : 0
                }
            ]
        },
        {
            "name" : "Mesh.017",
            "primitives" : [
                {
                    "attributes" : {
                        "POSITION" : 4,
                        "NORMAL" : 5,
                        "TEXCOORD_0" : 6
                    },
                    "indices" : 7
                }
            ]
        },
        {
            "name" : "Mesh.020",
            "primitives" : [
                {
                    "attributes" : {
                        "POSITION" : 8,
                        "NORMAL" : 9,
                        "TEXCOORD_0" : 10
                    },
                    "indices" : 11,
                    "material" : 1
                }
            ]
        },
        {
            "name" : "Mesh.019",
            "primitives" : [
                {
                    "attributes" : {
                        "POSITION" : 12,
                        "NORMAL" : 13,
                        "TEXCOORD_0" : 14
                    },
                    "indices" : 15,
                    "material" : 0
                }
            ]
        },
        {
            "name" : "ty.003_tire_0",
            "primitives" : [
                {
                    "attributes" : {
                        "POSITION" : 16,
                        "NORMAL" : 17,
                        "TEXCOORD_0" : 18
                    },
                    "indices" : 19,
                    "material" : 2
                }
            ]
        }
    ],
    "accessors" : [
        {
            "bufferView" : 0,
            "componentType" : 5126,
            "count" : 1720,
            "max" : [
                5.49361515045166,
                13.23343276977539,
                15.584327697753906
            ],
            "min" : [
                1.373475193977356,
                -13.28688907623291,
                -10.952528953552246
            ],
            "type" : "VEC3"
        },
        {
            "bufferView" : 1,
            "componentType" : 5126,
            "count" : 1720,
            "type" : "VEC3"
        },
        {
            "bufferView" : 2,
            "componentType" : 5126,
            "count" : 1720,
            "type" : "VEC2"
        },
        {
            "bufferView" : 3,
            "componentType" : 5123,
            "count" : 4800,
            "type" : "SCALAR"
        },
        {
            "bufferView" : 4,
            "componentType" : 5126,
            "count" : 143,
            "max" : [
                235.00625610351562,
                -217.00674438476562,
                26.554567337036133
            ],
            "min" : [
                228.9933319091797,
                -228.5399169921875,
                -2.925403356552124
            ],
            "type" : "VEC3"
        },
        {
            "bufferView" : 5,
            "componentType" : 5126,
            "count" : 143,
            "type" : "VEC3"
        },
        {
            "bufferView" : 6,
            "componentType" : 5126,
            "count" : 143,
            "type" : "VEC2"
        },
        {
            "bufferView" : 7,
            "componentType" : 5123,
            "count" : 174,
            "type" : "SCALAR"
        },
        {
            "bufferView" : 8,
            "componentType" : 5126,
            "count" : 1786,
            "max" : [
                23.46442413330078,
                28.48779296875,
                32.097511291503906
            ],
            "min" : [
                -4.109509468078613,
                -27.94617462158203,
                -24.328514099121094
            ],
            "type" : "VEC3"
        },
        {
            "bufferView" : 9,
            "componentType" : 5126,
            "count" : 1786,
            "type" : "VEC3"
        },
        {
            "bufferView" : 10,
            "componentType" : 5126,
            "count" : 1786,
            "type" : "VEC2"
        },
        {
            "bufferView" : 11,
            "componentType" : 5123,
            "count" : 2877,
            "type" : "SCALAR"
        },
        {
            "bufferView" : 12,
            "componentType" : 5126,
            "count" : 4165,
            "max" : [
                -0.8962607979774475,
                5.908848285675049,
                9.532063484191895
            ],
            "min" : [
                -3.183715343475342,
                -5.470911979675293,
                -1.847730278968811
            ],
            "type" : "VEC3"
        },
        {
            "bufferView" : 13,
            "componentType" : 5126,
            "count" : 4165,
            "type" : "VEC3"
        },
        {
            "bufferView" : 14,
            "componentType" : 5126,
            "count" : 4165,
            "type" : "VEC2"
        },
        {
            "bufferView" : 15,
            "componentType" : 5123,
            "count" : 11076,
            "type" : "SCALAR"
        },
        {
            "bufferView" : 16,
            "componentType" : 5126,
            "count" : 441,
            "max" : [
                0.1653943657875061,
                0.34907084703445435,
                0.35163378715515137
            ],
            "min" : [
                -0.10518265515565872,
                -0.3490711450576782,
                -0.35163426399230957
            ],
            "type" : "VEC3"
        },
        {
            "bufferView" : 17,
            "componentType" : 5126,
            "count" : 441,
            "type" : "VEC3"
        },
        {
            "bufferView" : 18,
            "componentType" : 5126,
            "count" : 441,
            "type" : "VEC2"
        },
        {
            "bufferView" : 19,
            "componentType" : 5123,
            "count" : 1482,
            "type" : "SCALAR"
        }
    ],
    "bufferViews" : [
        {
            "buffer" : 0,
            "byteLength" : 20640,
            "byteOffset" : 0
        },
        {
            "buffer" : 0,
            "byteLength" : 20640,
            "byteOffset" : 20640
        },
        {
            "buffer" : 0,
            "byteLength" : 13760,
            "byteOffset" : 41280
        },
        {
            "buffer" : 0,
            "byteLength" : 9600,
            "byteOffset" : 55040
        },
        {
            "buffer" : 0,
            "byteLength" : 1716,
            "byteOffset" : 64640
        },
        {
            "buffer" : 0,
            "byteLength" : 1716,
            "byteOffset" : 66356
        },
        {
            "buffer" : 0,
            "byteLength" : 1144,
            "byteOffset" : 68072
        },
        {
            "buffer" : 0,
            "byteLength" : 348,
            "byteOffset" : 69216
        },
        {
            "buffer" : 0,
            "byteLength" : 21432,
            "byteOffset" : 69564
        },
        {
            "buffer" : 0,
            "byteLength" : 21432,
            "byteOffset" : 90996
        },
        {
            "buffer" : 0,
            "byteLength" : 14288,
            "byteOffset" : 112428
        },
        {
            "buffer" : 0,
            "byteLength" : 5754,
            "byteOffset" : 126716
        },
        {
            "buffer" : 0,
            "byteLength" : 49980,
            "byteOffset" : 132472
        },
        {
            "buffer" : 0,
            "byteLength" : 49980,
            "byteOffset" : 182452
        },
        {
            "buffer" : 0,
            "byteLength" : 33320,
            "byteOffset" : 232432
        },
        {
            "buffer" : 0,
            "byteLength" : 22152,
            "byteOffset" : 265752
        },
        {
            "buffer" : 0,
            "byteLength" : 5292,
            "byteOffset" : 287904
        },
        {
            "buffer" : 0,
            "byteLength" : 5292,
            "byteOffset" : 293196
        },
        {
            "buffer" : 0,
            "byteLength" : 3528,
            "byteOffset" : 298488
        },
        {
            "buffer" : 0,
            "byteLength" : 2964,
            "byteOffset" : 302016
        }
    ],
    "buffers" : [
        {
            "byteLength" : 304980,
            "uri" : "wheel.bin"
        }
    ]
}
