{
    "asset" : {
        "generator" : "Khronos glTF Blender I/O v1.0.5",
        "version" : "2.0"
    },
    "scene" : 0,
    "scenes" : [
        {
            "name" : "Scene",
            "nodes" : [
                1
            ]
        }
    ],
    "nodes" : [
        {
            "mesh" : 0,
            "name" : "Chevrolet.Wheel.Bk.L_0",
            "translation" : [
                0.09763547778129578,
                2.3416802883148193,
                2.8314616680145264
            ]
        },
        {
            "children" : [
                0
            ],
            "name" : "Chevrolet.Wheel.Bk.L",
            "rotation" : [
                0.517055094242096,
                -0.5170551538467407,
                0.4823421835899353,
                0.4823422431945801
            ],
            "scale" : [
                0.49233657121658325,
                0.49233657121658325,
                0.2007700651884079
            ],
            "translation" : [
                1.1433398723602295,
                0.4624800682067871,
                -0.00704999128356576
            ]
        }
    ],
    "materials" : [
        {
            "doubleSided" : true,
            "name" : "wheel",
            "pbrMetallicRoughness" : {
                "baseColorTexture" : {
                    "index" : 0,
                    "texCoord" : 0
                },
                "metallicFactor" : 0.5687500238418579,
                "roughnessFactor" : 0.543749988079071
            }
        }
    ],
    "meshes" : [
        {
            "name" : "Chevrolet.Wheel.Bk.L_0",
            "primitives" : [
                {
                    "attributes" : {
                        "POSITION" : 0,
                        "NORMAL" : 1,
                        "TEXCOORD_0" : 2
                    },
                    "indices" : 3,
                    "material" : 0
                }
            ]
        }
    ],
    "textures" : [
        {
            "source" : 0
        }
    ],
    "images" : [
        {
            "mimeType" : "image/png",
            "name" : "Image_0",
            "uri" : "Image_0.png"
        }
    ],
    "accessors" : [
        {
            "bufferView" : 0,
            "componentType" : 5126,
            "count" : 5168,
            "max" : [
                0.9218800067901611,
                0.9218800067901611,
                0.5847700238227844
            ],
            "min" : [
                -0.9218800067901611,
                -0.9218800067901611,
                -1.8533999919891357
            ],
            "type" : "VEC3"
        },
        {
            "bufferView" : 1,
            "componentType" : 5126,
            "count" : 5168,
            "type" : "VEC3"
        },
        {
            "bufferView" : 2,
            "componentType" : 5126,
            "count" : 5168,
            "type" : "VEC2"
        },
        {
            "bufferView" : 3,
            "componentType" : 5123,
            "count" : 29952,
            "type" : "SCALAR"
        }
    ],
    "bufferViews" : [
        {
            "buffer" : 0,
            "byteLength" : 62016,
            "byteOffset" : 0
        },
        {
            "buffer" : 0,
            "byteLength" : 62016,
            "byteOffset" : 62016
        },
        {
            "buffer" : 0,
            "byteLength" : 41344,
            "byteOffset" : 124032
        },
        {
            "buffer" : 0,
            "byteLength" : 59904,
            "byteOffset" : 165376
        }
    ],
    "buffers" : [
        {
            "byteLength" : 225280,
            "uri" : "wheel.bin"
        }
    ]
}
