{
    "asset" : {
        "generator" : "Khronos glTF Blender I/O v1.0.5",
        "version" : "2.0"
    },
    "scene" : 0,
    "scenes" : [
        {
            "name" : "Scene",
            "nodes" : [
                0,
                1,
                5,
                6,
                7,
                8,
                10,
                11
            ]
        }
    ],
    "nodes" : [
        {
            "name" : "Light",
            "rotation" : [
                0.16907575726509094,
                0.27217137813568115,
                0.7558803558349609,
                0.570947527885437
            ],
            "translation" : [
                4.076245307922363,
                1.0054539442062378,
                5.903861999511719
            ]
        },
        {
            "camera" : 0,
            "name" : "Camera",
            "rotation" : [
                0.483536034822464,
                0.20870360732078552,
                0.33687159419059753,
                0.7804827094078064
            ],
            "translation" : [
                7.358891487121582,
                -6.925790786743164,
                4.958309173583984
            ]
        },
        {
            "name" : "Car Rig",
            "translation" : [
                -1.3499399423599243,
                -2.8441998958587646,
                -0.716480016708374
            ]
        },
        {
            "children" : [
                2
            ],
            "name" : "Root"
        },
        {
            "children" : [
                3
            ],
            "name" : "RootNode (model correction matrix)"
        },
        {
            "children" : [
                4
            ],
            "name" : "RootNode (gltf orientation matrix)"
        },
        {
            "name" : "Chevrolet.Body",
            "rotation" : [
                -0.7071068286895752,
                0,
                0,
                0.7071067094802856
            ],
            "scale" : [
                0.4713200032711029,
                0.4713199734687805,
                0.4713199734687805
            ],
            "translation" : [
                0,
                0.7290302515029907,
                1.5759097337722778
            ]
        },
        {
            "name" : "Chevrolet.Wheel.Ft.L",
            "rotation" : [
                0.024545609951019287,
                -0.7066806554794312,
                -0.0245457012206316,
                0.7066805958747864
            ],
            "scale" : [
                0.49233654141426086,
                0.20077002048492432,
                0.49233657121658325
            ],
            "translation" : [
                1.1433398723602295,
                0.4637707471847534,
                3.724680185317993
            ]
        },
        {
            "name" : "Chevrolet.Wheel.Ft.R",
            "rotation" : [
                0.7066807150840759,
                0.024544784799218178,
                0.7066807150840759,
                0.02454344928264618
            ],
            "scale" : [
                0.49233654141426086,
                0.2007700353860855,
                0.49233657121658325
            ],
            "translation" : [
                -1.1216599941253662,
                0.4637707471847534,
                3.724680185317993
            ]
        },
        {
            "mesh" : 0,
            "name" : "Chevrolet.Wheel.Bk.L_0",
            "translation" : [
                0.1389360874891281,
                -2.8379995822906494,
                2.3109872341156006
            ]
        },
        {
            "children" : [
                9
            ],
            "name" : "Chevrolet.Wheel.Bk.L",
            "rotation" : [
                0.024545609951019287,
                -0.7066806554794312,
                -0.0245457012206316,
                0.7066805958747864
            ],
            "scale" : [
                0.49233654141426086,
                0.20077002048492432,
                0.49233657121658325
            ],
            "translation" : [
                1.1433398723602295,
                0.46248000860214233,
                -0.007050052285194397
            ]
        },
        {
            "name" : "Chevrolet.Wheel.Bk.R",
            "rotation" : [
                0.7066807150840759,
                0.024544784799218178,
                0.7066807150840759,
                0.02454344928264618
            ],
            "scale" : [
                0.49233654141426086,
                0.2007700353860855,
                0.49233657121658325
            ],
            "translation" : [
                -1.1216700077056885,
                0.46248000860214233,
                0.006729990243911743
            ]
        }
    ],
    "cameras" : [
        {
            "name" : "Camera",
            "perspective" : {
                "yfov" : 0.39959648408210363,
                "zfar" : 100,
                "znear" : 0.10000000149011612
            },
            "type" : "perspective"
        }
    ],
    "materials" : [
        {
            "doubleSided" : true,
            "name" : "wheel",
            "pbrMetallicRoughness" : {
                "baseColorTexture" : {
                    "index" : 0,
                    "texCoord" : 0
                },
                "metallicFactor" : 0.5687500238418579,
                "roughnessFactor" : 0.543749988079071
            }
        }
    ],
    "meshes" : [
        {
            "name" : "Chevrolet.Wheel.Bk.L_0",
            "primitives" : [
                {
                    "attributes" : {
                        "POSITION" : 0,
                        "NORMAL" : 1,
                        "TEXCOORD_0" : 2
                    },
                    "indices" : 3,
                    "material" : 0
                }
            ]
        }
    ],
    "textures" : [
        {
            "source" : 0
        }
    ],
    "images" : [
        {
            "bufferView" : 4,
            "mimeType" : "image/png",
            "name" : "wheel_baseColor"
        }
    ],
    "accessors" : [
        {
            "bufferView" : 0,
            "componentType" : 5126,
            "count" : 5168,
            "max" : [
                0.9218800067901611,
                1.8533999919891357,
                0.9218800067901611
            ],
            "min" : [
                -0.9218800067901611,
                -0.5847700238227844,
                -0.9218800067901611
            ],
            "type" : "VEC3"
        },
        {
            "bufferView" : 1,
            "componentType" : 5126,
            "count" : 5168,
            "type" : "VEC3"
        },
        {
            "bufferView" : 2,
            "componentType" : 5126,
            "count" : 5168,
            "type" : "VEC2"
        },
        {
            "bufferView" : 3,
            "componentType" : 5123,
            "count" : 29952,
            "type" : "SCALAR"
        }
    ],
    "bufferViews" : [
        {
            "buffer" : 0,
            "byteLength" : 62016,
            "byteOffset" : 0
        },
        {
            "buffer" : 0,
            "byteLength" : 62016,
            "byteOffset" : 62016
        },
        {
            "buffer" : 0,
            "byteLength" : 41344,
            "byteOffset" : 124032
        },
        {
            "buffer" : 0,
            "byteLength" : 59904,
            "byteOffset" : 165376
        },
        {
            "buffer" : 0,
            "byteLength" : 869246,
            "byteOffset" : 225280
        }
    ],
    "buffers" : [
        {
            "byteLength" : 1094528,
            "uri" : "data:application/octet-stream;base64,"
        }
    ]
}
